<?xml version="1.0" encoding="UTF-8"?>
<mxfile host="app.diagrams.net" modified="2023-03-27T15:11:44.073Z" agent="Mozilla/5.0 (Windows NT 10.0; Win64; x64) AppleWebKit/537.36 (KHTML, like Gecko) Chrome/111.0.0.0 Safari/537.36" etag="RUhM6h_z2sqGeKAD7WF3" version="21.1.1" type="google">
  <diagram name="Page-1" id="FHCfZy1MeIq5pKG4Iu_G">
    <mxGraphModel dx="1970" dy="427" grid="1" gridSize="10" guides="1" tooltips="1" connect="1" arrows="1" fold="1" page="1" pageScale="1" pageWidth="850" pageHeight="1100" math="0" shadow="0">
      <root>
        <mxCell id="0" />
        <mxCell id="1" parent="0" />
        <mxCell id="831_XIXvWHtuxNFQ7PUv-2" value="User" style="shape=umlActor;verticalLabelPosition=bottom;verticalAlign=top;html=1;" parent="1" vertex="1">
          <mxGeometry x="39" y="410" width="30" height="60" as="geometry" />
        </mxCell>
        <mxCell id="831_XIXvWHtuxNFQ7PUv-11" value="alt find&amp;nbsp; username" style="shape=umlFrame;whiteSpace=wrap;html=1;width=160;height=30;" parent="1" vertex="1">
          <mxGeometry x="-10" y="600" width="920" height="300" as="geometry" />
        </mxCell>
        <mxCell id="831_XIXvWHtuxNFQ7PUv-13" value="1. Input username, password" style="html=1;verticalAlign=bottom;endArrow=block;" parent="1" edge="1">
          <mxGeometry width="80" relative="1" as="geometry">
            <mxPoint x="52" y="512" as="sourcePoint" />
            <mxPoint x="200" y="512" as="targetPoint" />
          </mxGeometry>
        </mxCell>
        <mxCell id="831_XIXvWHtuxNFQ7PUv-19" value="[username not found]" style="text;html=1;align=center;verticalAlign=middle;resizable=0;points=[];autosize=1;strokeColor=none;fillColor=none;" parent="1" vertex="1">
          <mxGeometry x="-10" y="645" width="140" height="30" as="geometry" />
        </mxCell>
        <mxCell id="831_XIXvWHtuxNFQ7PUv-20" value="" style="endArrow=none;dashed=1;html=1;dashPattern=1 3;strokeWidth=2;rounded=0;" parent="1" edge="1">
          <mxGeometry width="50" height="50" relative="1" as="geometry">
            <mxPoint x="-30" y="680" as="sourcePoint" />
            <mxPoint x="940" y="680" as="targetPoint" />
          </mxGeometry>
        </mxCell>
        <mxCell id="H2UGSNoom49Nssu_zT9s-1" style="edgeStyle=orthogonalEdgeStyle;rounded=0;orthogonalLoop=1;jettySize=auto;html=1;dashed=1;endArrow=none;endFill=0;" parent="1" edge="1">
          <mxGeometry relative="1" as="geometry">
            <mxPoint x="54" y="980" as="targetPoint" />
            <Array as="points">
              <mxPoint x="54" y="550" />
              <mxPoint x="54" y="550" />
            </Array>
            <mxPoint x="54.03448275862047" y="470" as="sourcePoint" />
          </mxGeometry>
        </mxCell>
        <mxCell id="H2UGSNoom49Nssu_zT9s-3" value="Home" style="shape=umlLifeline;perimeter=lifelinePerimeter;container=1;collapsible=0;recursiveResize=0;rounded=0;shadow=0;strokeWidth=1;" parent="1" vertex="1">
          <mxGeometry x="160" y="410" width="100" height="570" as="geometry" />
        </mxCell>
        <mxCell id="H2UGSNoom49Nssu_zT9s-4" value="" style="html=1;points=[];perimeter=orthogonalPerimeter;" parent="H2UGSNoom49Nssu_zT9s-3" vertex="1">
          <mxGeometry x="45" y="90" width="10" height="450" as="geometry" />
        </mxCell>
        <mxCell id="H2UGSNoom49Nssu_zT9s-35" value="12. Login success message" style="html=1;verticalAlign=bottom;endArrow=open;dashed=1;endSize=8;exitX=-0.106;exitY=0.927;exitDx=0;exitDy=0;exitPerimeter=0;" parent="H2UGSNoom49Nssu_zT9s-3" edge="1">
          <mxGeometry relative="1" as="geometry">
            <mxPoint x="44" y="520" as="sourcePoint" />
            <mxPoint x="-105" y="520.66" as="targetPoint" />
          </mxGeometry>
        </mxCell>
        <mxCell id="H2UGSNoom49Nssu_zT9s-5" value=":SecurityController" style="shape=umlLifeline;perimeter=lifelinePerimeter;container=1;collapsible=0;recursiveResize=0;rounded=0;shadow=0;strokeWidth=1;" parent="1" vertex="1">
          <mxGeometry x="318" y="410" width="110" height="570" as="geometry" />
        </mxCell>
        <mxCell id="H2UGSNoom49Nssu_zT9s-6" value="" style="html=1;points=[];perimeter=orthogonalPerimeter;" parent="H2UGSNoom49Nssu_zT9s-5" vertex="1">
          <mxGeometry x="50" y="140" width="10" height="330" as="geometry" />
        </mxCell>
        <mxCell id="H2UGSNoom49Nssu_zT9s-19" value="3. login()" style="html=1;verticalAlign=bottom;endArrow=block;exitX=1.136;exitY=0.107;exitDx=0;exitDy=0;exitPerimeter=0;" parent="H2UGSNoom49Nssu_zT9s-5" edge="1">
          <mxGeometry width="80" relative="1" as="geometry">
            <mxPoint x="-103.63999999999987" y="151.99" as="sourcePoint" />
            <mxPoint x="50" y="151" as="targetPoint" />
          </mxGeometry>
        </mxCell>
        <mxCell id="H2UGSNoom49Nssu_zT9s-34" value="11. Return user" style="html=1;verticalAlign=bottom;endArrow=open;dashed=1;endSize=8;exitX=-0.106;exitY=0.927;exitDx=0;exitDy=0;exitPerimeter=0;" parent="H2UGSNoom49Nssu_zT9s-5" edge="1">
          <mxGeometry relative="1" as="geometry">
            <mxPoint x="47" y="429" as="sourcePoint" />
            <mxPoint x="-102" y="429.65999999999997" as="targetPoint" />
          </mxGeometry>
        </mxCell>
        <mxCell id="H2UGSNoom49Nssu_zT9s-7" value=":IAccountService" style="shape=umlLifeline;perimeter=lifelinePerimeter;container=1;collapsible=0;recursiveResize=0;rounded=0;shadow=0;strokeWidth=1;" parent="1" vertex="1">
          <mxGeometry x="488" y="410" width="100" height="570" as="geometry" />
        </mxCell>
        <mxCell id="H2UGSNoom49Nssu_zT9s-8" value="" style="html=1;points=[];perimeter=orthogonalPerimeter;" parent="H2UGSNoom49Nssu_zT9s-7" vertex="1">
          <mxGeometry x="45" y="160" width="10" height="290" as="geometry" />
        </mxCell>
        <mxCell id="H2UGSNoom49Nssu_zT9s-33" value="10. Return result" style="html=1;verticalAlign=bottom;endArrow=open;dashed=1;endSize=8;exitX=-0.106;exitY=0.927;exitDx=0;exitDy=0;exitPerimeter=0;" parent="H2UGSNoom49Nssu_zT9s-7" edge="1">
          <mxGeometry relative="1" as="geometry">
            <mxPoint x="39" y="411" as="sourcePoint" />
            <mxPoint x="-110" y="411.65999999999997" as="targetPoint" />
          </mxGeometry>
        </mxCell>
        <mxCell id="H2UGSNoom49Nssu_zT9s-9" value=":IAccountRepository" style="shape=umlLifeline;perimeter=lifelinePerimeter;container=1;collapsible=0;recursiveResize=0;rounded=0;shadow=0;strokeWidth=1;" parent="1" vertex="1">
          <mxGeometry x="641" y="410" width="120" height="570" as="geometry" />
        </mxCell>
        <mxCell id="H2UGSNoom49Nssu_zT9s-10" value="" style="html=1;points=[];perimeter=orthogonalPerimeter;" parent="H2UGSNoom49Nssu_zT9s-9" vertex="1">
          <mxGeometry x="55" y="290" width="10" height="110" as="geometry" />
        </mxCell>
        <mxCell id="H2UGSNoom49Nssu_zT9s-14" value="8. Return result" style="html=1;verticalAlign=bottom;endArrow=open;dashed=1;endSize=8;exitX=-0.106;exitY=0.927;exitDx=0;exitDy=0;exitPerimeter=0;" parent="H2UGSNoom49Nssu_zT9s-9" source="H2UGSNoom49Nssu_zT9s-12" edge="1">
          <mxGeometry relative="1" as="geometry">
            <mxPoint x="145" y="374.65999999999997" as="sourcePoint" />
            <mxPoint x="65" y="374.65999999999997" as="targetPoint" />
          </mxGeometry>
        </mxCell>
        <mxCell id="H2UGSNoom49Nssu_zT9s-11" value="Database" style="shape=umlLifeline;perimeter=lifelinePerimeter;container=1;collapsible=0;recursiveResize=0;rounded=0;shadow=0;strokeWidth=1;" parent="1" vertex="1">
          <mxGeometry x="811" y="410" width="100" height="570" as="geometry" />
        </mxCell>
        <mxCell id="H2UGSNoom49Nssu_zT9s-12" value="" style="html=1;points=[];perimeter=orthogonalPerimeter;" parent="H2UGSNoom49Nssu_zT9s-11" vertex="1">
          <mxGeometry x="45" y="300" width="10" height="80" as="geometry" />
        </mxCell>
        <mxCell id="H2UGSNoom49Nssu_zT9s-20" value="4. findByUsername()" style="html=1;verticalAlign=bottom;endArrow=block;" parent="1" edge="1">
          <mxGeometry width="80" relative="1" as="geometry">
            <mxPoint x="378" y="581" as="sourcePoint" />
            <mxPoint x="533" y="581" as="targetPoint" />
          </mxGeometry>
        </mxCell>
        <mxCell id="H2UGSNoom49Nssu_zT9s-21" value="2. User click button &quot;Login&quot;" style="html=1;verticalAlign=bottom;endArrow=block;" parent="1" edge="1">
          <mxGeometry width="80" relative="1" as="geometry">
            <mxPoint x="55" y="547" as="sourcePoint" />
            <mxPoint x="203" y="546" as="targetPoint" />
          </mxGeometry>
        </mxCell>
        <mxCell id="H2UGSNoom49Nssu_zT9s-22" value="5.1 Return not found message" style="html=1;verticalAlign=bottom;endArrow=open;dashed=1;endSize=8;" parent="1" edge="1">
          <mxGeometry relative="1" as="geometry">
            <mxPoint x="530" y="629" as="sourcePoint" />
            <mxPoint x="378" y="629" as="targetPoint" />
          </mxGeometry>
        </mxCell>
        <mxCell id="H2UGSNoom49Nssu_zT9s-23" value="5.1 Return not found message" style="html=1;verticalAlign=bottom;endArrow=open;dashed=1;endSize=8;" parent="1" edge="1">
          <mxGeometry relative="1" as="geometry">
            <mxPoint x="370" y="662" as="sourcePoint" />
            <mxPoint x="215" y="662" as="targetPoint" />
          </mxGeometry>
        </mxCell>
        <mxCell id="H2UGSNoom49Nssu_zT9s-25" value="" style="endArrow=none;dashed=1;html=1;dashPattern=1 3;strokeWidth=2;rounded=0;" parent="1" edge="1">
          <mxGeometry width="50" height="50" relative="1" as="geometry">
            <mxPoint x="-30" y="680" as="sourcePoint" />
            <mxPoint x="940" y="680" as="targetPoint" />
          </mxGeometry>
        </mxCell>
        <mxCell id="H2UGSNoom49Nssu_zT9s-26" value="[username found]" style="text;html=1;align=center;verticalAlign=middle;resizable=0;points=[];autosize=1;strokeColor=none;fillColor=none;" parent="1" vertex="1">
          <mxGeometry x="10" y="710" width="120" height="30" as="geometry" />
        </mxCell>
        <mxCell id="H2UGSNoom49Nssu_zT9s-27" value="6. acthenticateUser()" style="html=1;verticalAlign=bottom;endArrow=block;entryX=0.772;entryY=0.499;entryDx=0;entryDy=0;entryPerimeter=0;" parent="1" edge="1">
          <mxGeometry x="-0.0033" width="80" relative="1" as="geometry">
            <mxPoint x="545" y="715" as="sourcePoint" />
            <mxPoint x="695.2400000000002" y="714.77" as="targetPoint" />
            <mxPoint as="offset" />
          </mxGeometry>
        </mxCell>
        <mxCell id="H2UGSNoom49Nssu_zT9s-28" value="7. acthenticateUser()" style="html=1;verticalAlign=bottom;endArrow=block;entryX=0.772;entryY=0.499;entryDx=0;entryDy=0;entryPerimeter=0;" parent="1" edge="1">
          <mxGeometry x="-0.0033" width="80" relative="1" as="geometry">
            <mxPoint x="707" y="739.94" as="sourcePoint" />
            <mxPoint x="857.2400000000002" y="739.71" as="targetPoint" />
            <mxPoint as="offset" />
          </mxGeometry>
        </mxCell>
        <mxCell id="H2UGSNoom49Nssu_zT9s-32" value="9. Return result" style="html=1;verticalAlign=bottom;endArrow=open;dashed=1;endSize=8;exitX=-0.106;exitY=0.927;exitDx=0;exitDy=0;exitPerimeter=0;" parent="1" edge="1">
          <mxGeometry relative="1" as="geometry">
            <mxPoint x="693" y="799" as="sourcePoint" />
            <mxPoint x="544" y="799.66" as="targetPoint" />
          </mxGeometry>
        </mxCell>
        <mxCell id="vyNXX40Jlp6SaMgfSdCf-1" value="User" style="shape=umlActor;verticalLabelPosition=bottom;verticalAlign=top;html=1;" parent="1" vertex="1">
          <mxGeometry x="34" y="1130" width="30" height="60" as="geometry" />
        </mxCell>
        <mxCell id="vyNXX40Jlp6SaMgfSdCf-2" value="alt find&amp;nbsp; username" style="shape=umlFrame;whiteSpace=wrap;html=1;width=160;height=30;" parent="1" vertex="1">
          <mxGeometry x="-15" y="1320" width="920" height="300" as="geometry" />
        </mxCell>
        <mxCell id="vyNXX40Jlp6SaMgfSdCf-3" value="1. Input username" style="html=1;verticalAlign=bottom;endArrow=block;" parent="1" edge="1">
          <mxGeometry width="80" relative="1" as="geometry">
            <mxPoint x="49" y="1232" as="sourcePoint" />
            <mxPoint x="197" y="1232" as="targetPoint" />
          </mxGeometry>
        </mxCell>
        <mxCell id="vyNXX40Jlp6SaMgfSdCf-4" value="[username not found]" style="text;html=1;align=center;verticalAlign=middle;resizable=0;points=[];autosize=1;strokeColor=none;fillColor=none;" parent="1" vertex="1">
          <mxGeometry x="-15" y="1365" width="140" height="30" as="geometry" />
        </mxCell>
        <mxCell id="vyNXX40Jlp6SaMgfSdCf-5" value="" style="endArrow=none;dashed=1;html=1;dashPattern=1 3;strokeWidth=2;rounded=0;" parent="1" edge="1">
          <mxGeometry width="50" height="50" relative="1" as="geometry">
            <mxPoint x="-35" y="1400" as="sourcePoint" />
            <mxPoint x="935" y="1400" as="targetPoint" />
          </mxGeometry>
        </mxCell>
        <mxCell id="vyNXX40Jlp6SaMgfSdCf-6" style="edgeStyle=orthogonalEdgeStyle;rounded=0;orthogonalLoop=1;jettySize=auto;html=1;dashed=1;endArrow=none;endFill=0;" parent="1" edge="1">
          <mxGeometry relative="1" as="geometry">
            <mxPoint x="49" y="1700" as="targetPoint" />
            <Array as="points">
              <mxPoint x="49" y="1270" />
              <mxPoint x="49" y="1270" />
            </Array>
            <mxPoint x="49.03448275862047" y="1190" as="sourcePoint" />
          </mxGeometry>
        </mxCell>
        <mxCell id="vyNXX40Jlp6SaMgfSdCf-7" value="Forgot Password" style="shape=umlLifeline;perimeter=lifelinePerimeter;container=1;collapsible=0;recursiveResize=0;rounded=0;shadow=0;strokeWidth=1;" parent="1" vertex="1">
          <mxGeometry x="155" y="1130" width="100" height="570" as="geometry" />
        </mxCell>
        <mxCell id="vyNXX40Jlp6SaMgfSdCf-8" value="" style="html=1;points=[];perimeter=orthogonalPerimeter;" parent="vyNXX40Jlp6SaMgfSdCf-7" vertex="1">
          <mxGeometry x="45" y="90" width="10" height="450" as="geometry" />
        </mxCell>
        <mxCell id="vyNXX40Jlp6SaMgfSdCf-9" value="12. Success message" style="html=1;verticalAlign=bottom;endArrow=open;dashed=1;endSize=8;exitX=-0.106;exitY=0.927;exitDx=0;exitDy=0;exitPerimeter=0;" parent="vyNXX40Jlp6SaMgfSdCf-7" edge="1">
          <mxGeometry relative="1" as="geometry">
            <mxPoint x="44" y="520" as="sourcePoint" />
            <mxPoint x="-105" y="520.66" as="targetPoint" />
          </mxGeometry>
        </mxCell>
        <mxCell id="vyNXX40Jlp6SaMgfSdCf-10" value=":SecurityController" style="shape=umlLifeline;perimeter=lifelinePerimeter;container=1;collapsible=0;recursiveResize=0;rounded=0;shadow=0;strokeWidth=1;" parent="1" vertex="1">
          <mxGeometry x="313" y="1130" width="110" height="570" as="geometry" />
        </mxCell>
        <mxCell id="vyNXX40Jlp6SaMgfSdCf-11" value="" style="html=1;points=[];perimeter=orthogonalPerimeter;" parent="vyNXX40Jlp6SaMgfSdCf-10" vertex="1">
          <mxGeometry x="50" y="140" width="10" height="330" as="geometry" />
        </mxCell>
        <mxCell id="vyNXX40Jlp6SaMgfSdCf-12" value="3. findByUsername()" style="html=1;verticalAlign=bottom;endArrow=block;exitX=1.136;exitY=0.107;exitDx=0;exitDy=0;exitPerimeter=0;" parent="vyNXX40Jlp6SaMgfSdCf-10" edge="1">
          <mxGeometry x="0.0507" y="11" width="80" relative="1" as="geometry">
            <mxPoint x="-103.63999999999987" y="151.99" as="sourcePoint" />
            <mxPoint x="50" y="151" as="targetPoint" />
            <mxPoint as="offset" />
          </mxGeometry>
        </mxCell>
        <mxCell id="vyNXX40Jlp6SaMgfSdCf-13" value="11. Return password by email" style="html=1;verticalAlign=bottom;endArrow=open;dashed=1;endSize=8;exitX=-0.106;exitY=0.927;exitDx=0;exitDy=0;exitPerimeter=0;" parent="vyNXX40Jlp6SaMgfSdCf-10" edge="1">
          <mxGeometry relative="1" as="geometry">
            <mxPoint x="47" y="429" as="sourcePoint" />
            <mxPoint x="-102" y="429.65999999999997" as="targetPoint" />
          </mxGeometry>
        </mxCell>
        <mxCell id="vyNXX40Jlp6SaMgfSdCf-14" value=":IAccountService" style="shape=umlLifeline;perimeter=lifelinePerimeter;container=1;collapsible=0;recursiveResize=0;rounded=0;shadow=0;strokeWidth=1;" parent="1" vertex="1">
          <mxGeometry x="483" y="1130" width="100" height="570" as="geometry" />
        </mxCell>
        <mxCell id="vyNXX40Jlp6SaMgfSdCf-15" value="" style="html=1;points=[];perimeter=orthogonalPerimeter;" parent="vyNXX40Jlp6SaMgfSdCf-14" vertex="1">
          <mxGeometry x="45" y="160" width="10" height="290" as="geometry" />
        </mxCell>
        <mxCell id="vyNXX40Jlp6SaMgfSdCf-16" value="10. Return result" style="html=1;verticalAlign=bottom;endArrow=open;dashed=1;endSize=8;exitX=-0.106;exitY=0.927;exitDx=0;exitDy=0;exitPerimeter=0;" parent="vyNXX40Jlp6SaMgfSdCf-14" edge="1">
          <mxGeometry relative="1" as="geometry">
            <mxPoint x="39" y="411" as="sourcePoint" />
            <mxPoint x="-110" y="411.65999999999997" as="targetPoint" />
          </mxGeometry>
        </mxCell>
        <mxCell id="vyNXX40Jlp6SaMgfSdCf-17" value=":IAccountRepository" style="shape=umlLifeline;perimeter=lifelinePerimeter;container=1;collapsible=0;recursiveResize=0;rounded=0;shadow=0;strokeWidth=1;" parent="1" vertex="1">
          <mxGeometry x="636" y="1130" width="120" height="570" as="geometry" />
        </mxCell>
        <mxCell id="vyNXX40Jlp6SaMgfSdCf-18" value="" style="html=1;points=[];perimeter=orthogonalPerimeter;" parent="vyNXX40Jlp6SaMgfSdCf-17" vertex="1">
          <mxGeometry x="55" y="290" width="10" height="110" as="geometry" />
        </mxCell>
        <mxCell id="vyNXX40Jlp6SaMgfSdCf-19" value="8. Return result" style="html=1;verticalAlign=bottom;endArrow=open;dashed=1;endSize=8;exitX=-0.106;exitY=0.927;exitDx=0;exitDy=0;exitPerimeter=0;" parent="vyNXX40Jlp6SaMgfSdCf-17" source="vyNXX40Jlp6SaMgfSdCf-21" edge="1">
          <mxGeometry relative="1" as="geometry">
            <mxPoint x="145" y="374.65999999999997" as="sourcePoint" />
            <mxPoint x="65" y="374.65999999999997" as="targetPoint" />
          </mxGeometry>
        </mxCell>
        <mxCell id="vyNXX40Jlp6SaMgfSdCf-20" value="Database" style="shape=umlLifeline;perimeter=lifelinePerimeter;container=1;collapsible=0;recursiveResize=0;rounded=0;shadow=0;strokeWidth=1;" parent="1" vertex="1">
          <mxGeometry x="806" y="1130" width="100" height="570" as="geometry" />
        </mxCell>
        <mxCell id="vyNXX40Jlp6SaMgfSdCf-21" value="" style="html=1;points=[];perimeter=orthogonalPerimeter;" parent="vyNXX40Jlp6SaMgfSdCf-20" vertex="1">
          <mxGeometry x="45" y="300" width="10" height="80" as="geometry" />
        </mxCell>
        <mxCell id="vyNXX40Jlp6SaMgfSdCf-22" value="4. findByUsername()" style="html=1;verticalAlign=bottom;endArrow=block;" parent="1" edge="1">
          <mxGeometry width="80" relative="1" as="geometry">
            <mxPoint x="373" y="1301" as="sourcePoint" />
            <mxPoint x="528" y="1301" as="targetPoint" />
          </mxGeometry>
        </mxCell>
        <mxCell id="vyNXX40Jlp6SaMgfSdCf-23" value="2. User click button &quot;Send&quot;" style="html=1;verticalAlign=bottom;endArrow=block;" parent="1" edge="1">
          <mxGeometry width="80" relative="1" as="geometry">
            <mxPoint x="50" y="1267" as="sourcePoint" />
            <mxPoint x="198" y="1266" as="targetPoint" />
          </mxGeometry>
        </mxCell>
        <mxCell id="vyNXX40Jlp6SaMgfSdCf-24" value="5.1 Return not found message" style="html=1;verticalAlign=bottom;endArrow=open;dashed=1;endSize=8;" parent="1" edge="1">
          <mxGeometry relative="1" as="geometry">
            <mxPoint x="525" y="1349" as="sourcePoint" />
            <mxPoint x="373" y="1349" as="targetPoint" />
          </mxGeometry>
        </mxCell>
        <mxCell id="vyNXX40Jlp6SaMgfSdCf-25" value="5.1 Return not found message" style="html=1;verticalAlign=bottom;endArrow=open;dashed=1;endSize=8;" parent="1" edge="1">
          <mxGeometry relative="1" as="geometry">
            <mxPoint x="365" y="1382" as="sourcePoint" />
            <mxPoint x="210" y="1382" as="targetPoint" />
          </mxGeometry>
        </mxCell>
        <mxCell id="vyNXX40Jlp6SaMgfSdCf-26" value="" style="endArrow=none;dashed=1;html=1;dashPattern=1 3;strokeWidth=2;rounded=0;" parent="1" edge="1">
          <mxGeometry width="50" height="50" relative="1" as="geometry">
            <mxPoint x="-35" y="1400" as="sourcePoint" />
            <mxPoint x="935" y="1400" as="targetPoint" />
          </mxGeometry>
        </mxCell>
        <mxCell id="vyNXX40Jlp6SaMgfSdCf-27" value="[username found]" style="text;html=1;align=center;verticalAlign=middle;resizable=0;points=[];autosize=1;strokeColor=none;fillColor=none;" parent="1" vertex="1">
          <mxGeometry x="5" y="1430" width="120" height="30" as="geometry" />
        </mxCell>
        <mxCell id="vyNXX40Jlp6SaMgfSdCf-28" value="6.&amp;nbsp;changePassword()" style="html=1;verticalAlign=bottom;endArrow=block;entryX=0.772;entryY=0.499;entryDx=0;entryDy=0;entryPerimeter=0;" parent="1" edge="1">
          <mxGeometry x="-0.0033" width="80" relative="1" as="geometry">
            <mxPoint x="540" y="1435" as="sourcePoint" />
            <mxPoint x="690.2400000000002" y="1434.77" as="targetPoint" />
            <mxPoint as="offset" />
          </mxGeometry>
        </mxCell>
        <mxCell id="vyNXX40Jlp6SaMgfSdCf-29" value="7.&amp;nbsp;changePassword()" style="html=1;verticalAlign=bottom;endArrow=block;entryX=0.772;entryY=0.499;entryDx=0;entryDy=0;entryPerimeter=0;" parent="1" edge="1">
          <mxGeometry x="-0.0033" width="80" relative="1" as="geometry">
            <mxPoint x="702" y="1459.94" as="sourcePoint" />
            <mxPoint x="852.2400000000002" y="1459.71" as="targetPoint" />
            <mxPoint as="offset" />
          </mxGeometry>
        </mxCell>
        <mxCell id="vyNXX40Jlp6SaMgfSdCf-30" value="9. Return result" style="html=1;verticalAlign=bottom;endArrow=open;dashed=1;endSize=8;exitX=-0.106;exitY=0.927;exitDx=0;exitDy=0;exitPerimeter=0;" parent="1" edge="1">
          <mxGeometry relative="1" as="geometry">
            <mxPoint x="688" y="1519" as="sourcePoint" />
            <mxPoint x="539" y="1519.6599999999999" as="targetPoint" />
          </mxGeometry>
        </mxCell>
      </root>
    </mxGraphModel>
  </diagram>
</mxfile>
